<svg xmlns="http://www.w3.org/2000/svg" xmlns:xlink="http://www.w3.org/1999/xlink" width="1080" zoomAndPan="magnify" viewBox="0 0 810 479.249994" height="639" preserveAspectRatio="xMidYMid meet" version="1.0"><defs><g/><clipPath id="666263fcc1"><path d="M 0.632812 0 L 809.367188 0 L 809.367188 478.5 L 0.632812 478.5 Z M 0.632812 0 " clip-rule="nonzero"/></clipPath><clipPath id="f633fa3927"><path d="M 0.632812 0 L 793 0 L 793 315 L 0.632812 315 Z M 0.632812 0 " clip-rule="nonzero"/></clipPath><clipPath id="46a577e3ee"><rect x="0" width="793" y="0" height="315"/></clipPath><clipPath id="efc04729fa"><path d="M 421 197 L 809.367188 197 L 809.367188 478.5 L 421 478.5 Z M 421 197 " clip-rule="nonzero"/></clipPath><clipPath id="83e7bd4f87"><rect x="0" width="389" y="0" height="282"/></clipPath><clipPath id="4fde53377b"><path d="M 2 199 L 407 199 L 407 478.5 L 2 478.5 Z M 2 199 " clip-rule="nonzero"/></clipPath><clipPath id="7c7609f3c4"><rect x="0" width="405" y="0" height="280"/></clipPath><clipPath id="e0bbb8da02"><rect x="0" width="810" y="0" height="479"/></clipPath></defs><g clip-path="url(#666263fcc1)"><g transform="matrix(1, 0, 0, 1, 0, -0.0000000000000092)"><g clip-path="url(#e0bbb8da02)"><g clip-path="url(#f633fa3927)"><g transform="matrix(1, 0, 0, 1, 0, -0.0000000000000092)"><g clip-path="url(#46a577e3ee)"><g fill="#ac0000" fill-opacity="1"><g transform="translate(0.632817, 234.368566)"><g><path d="M 24.921875 0 L 3.078125 -203.859375 L 42.953125 -203.859375 L 54.34375 -75.234375 L 65.734375 -203.859375 L 103.71875 -203.859375 L 114.625 -75.234375 L 125.546875 -203.859375 L 165.890625 -203.859375 L 143.578125 0 L 94.6875 0 L 84.484375 -98.25 L 74.765625 0 Z M 24.921875 0 "/></g></g></g><g fill="#ac0000" fill-opacity="1"><g transform="translate(169.598707, 234.368566)"><g><path d="M 9.015625 0 L 9.015625 -203.859375 L 90.65625 -203.859375 L 90.65625 -164.46875 L 50.546875 -164.46875 L 50.546875 -124.828125 L 89 -124.828125 L 89 -86.390625 L 50.546875 -86.390625 L 50.546875 -39.640625 L 93.265625 -39.640625 L 93.265625 0 Z M 9.015625 0 "/></g></g></g><g fill="#ac0000" fill-opacity="1"><g transform="translate(267.37109, 234.368566)"><g><path d="M 9.015625 -203.859375 L 65.265625 -203.859375 C 79.816406 -203.859375 90.734375 -199.820312 98.015625 -191.75 C 105.296875 -183.6875 109.015625 -171.742188 109.171875 -155.921875 L 109.640625 -60.515625 C 109.804688 -40.421875 106.328125 -25.3125 99.203125 -15.1875 C 92.078125 -5.0625 80.289062 0 63.84375 0 L 9.015625 0 Z M 57.203125 -36.078125 C 64.628906 -36.078125 68.34375 -39.710938 68.34375 -46.984375 L 68.34375 -152.125 C 68.34375 -156.71875 67.988281 -160.160156 67.28125 -162.453125 C 66.570312 -164.742188 65.265625 -166.285156 63.359375 -167.078125 C 61.460938 -167.867188 58.535156 -168.265625 54.578125 -168.265625 L 50.078125 -168.265625 L 50.078125 -36.078125 Z M 57.203125 -36.078125 "/></g></g></g><g fill="#ac0000" fill-opacity="1"><g transform="translate(384.365757, 234.368566)"><g><path d="M 9.015625 -203.859375 L 65.265625 -203.859375 C 79.816406 -203.859375 90.734375 -199.820312 98.015625 -191.75 C 105.296875 -183.6875 109.015625 -171.742188 109.171875 -155.921875 L 109.640625 -60.515625 C 109.804688 -40.421875 106.328125 -25.3125 99.203125 -15.1875 C 92.078125 -5.0625 80.289062 0 63.84375 0 L 9.015625 0 Z M 57.203125 -36.078125 C 64.628906 -36.078125 68.34375 -39.710938 68.34375 -46.984375 L 68.34375 -152.125 C 68.34375 -156.71875 67.988281 -160.160156 67.28125 -162.453125 C 66.570312 -164.742188 65.265625 -166.285156 63.359375 -167.078125 C 61.460938 -167.867188 58.535156 -168.265625 54.578125 -168.265625 L 50.078125 -168.265625 L 50.078125 -36.078125 Z M 57.203125 -36.078125 "/></g></g></g><g fill="#ac0000" fill-opacity="1"><g transform="translate(501.360424, 234.368566)"><g><path d="M 7.125 0 L 7.125 -203.859375 L 46.515625 -203.859375 L 46.515625 0 Z M 7.125 0 "/></g></g></g><g fill="#ac0000" fill-opacity="1"><g transform="translate(555.230191, 234.368566)"><g><path d="M 9.015625 0 L 9.015625 -203.859375 L 51.03125 -203.859375 L 69.78125 -106.328125 L 69.78125 -203.859375 L 109.171875 -203.859375 L 109.171875 0 L 69.296875 0 L 48.890625 -102.046875 L 48.890625 0 Z M 9.015625 0 "/></g></g></g><g fill="#ac0000" fill-opacity="1"><g transform="translate(673.41138, 234.368566)"><g><path d="M 51.03125 1.90625 C 36.3125 1.90625 25.351562 -3.273438 18.15625 -13.640625 C 10.957031 -24.003906 7.359375 -39.707031 7.359375 -60.75 L 7.359375 -148.5625 C 7.359375 -167.394531 11.550781 -181.632812 19.9375 -191.28125 C 28.320312 -200.9375 40.820312 -205.765625 57.4375 -205.765625 C 70.882812 -205.765625 81.328125 -203.070312 88.765625 -197.6875 C 96.203125 -192.3125 101.34375 -184.476562 104.1875 -174.1875 C 107.03125 -163.90625 108.453125 -150.695312 108.453125 -134.5625 L 68.59375 -134.5625 L 68.59375 -152.84375 C 68.59375 -157.75 67.914062 -161.546875 66.5625 -164.234375 C 65.21875 -166.921875 62.804688 -168.265625 59.328125 -168.265625 C 51.578125 -168.265625 47.703125 -163.203125 47.703125 -153.078125 L 47.703125 -54.34375 C 47.703125 -48.175781 48.492188 -43.507812 50.078125 -40.34375 C 51.660156 -37.175781 54.425781 -35.59375 58.375 -35.59375 C 62.332031 -35.59375 65.101562 -37.175781 66.6875 -40.34375 C 68.269531 -43.507812 69.0625 -48.175781 69.0625 -54.34375 L 69.0625 -83.546875 L 58.140625 -83.546875 L 58.140625 -118.65625 L 107.984375 -118.65625 L 107.984375 0 L 91.609375 0 L 84.71875 -17.09375 C 77.445312 -4.425781 66.21875 1.90625 51.03125 1.90625 Z M 51.03125 1.90625 "/></g></g></g></g></g></g><g clip-path="url(#efc04729fa)"><g transform="matrix(1, 0, 0, 1, 421, 197)"><g clip-path="url(#83e7bd4f87)"><g fill="#ac0000" fill-opacity="1"><g transform="translate(0.333328, 239.692125)"><g><path d="M 7.9375 0 L 7.9375 -179.5625 L 79.84375 -179.5625 L 79.84375 -144.859375 L 44.53125 -144.859375 L 44.53125 -109.953125 L 78.390625 -109.953125 L 78.390625 -76.09375 L 44.53125 -76.09375 L 44.53125 -34.90625 L 82.15625 -34.90625 L 82.15625 0 Z M 7.9375 0 "/></g></g></g><g fill="#ac0000" fill-opacity="1"><g transform="translate(86.45134, 239.692125)"><g><path d="M 2.71875 0 L 21.953125 -95.3125 L 6.6875 -179.765625 L 41.8125 -179.765625 L 51.21875 -117.890625 L 59.359375 -179.765625 L 94.6875 -179.765625 L 79.21875 -95.3125 L 98.453125 0 L 62.078125 0 L 50.796875 -70.234375 L 39.296875 0 Z M 2.71875 0 "/></g></g></g><g fill="#ac0000" fill-opacity="1"><g transform="translate(187.61915, 239.692125)"><g><path d="M 7.9375 -179.5625 L 55.390625 -179.5625 C 69.742188 -179.5625 79.984375 -174.925781 86.109375 -165.65625 C 92.242188 -156.382812 95.3125 -142.832031 95.3125 -125 C 95.3125 -107.164062 92.59375 -93.71875 87.15625 -84.65625 C 81.726562 -75.601562 71.976562 -71.078125 57.90625 -71.078125 L 43.265625 -71.078125 L 43.265625 0 L 7.9375 0 Z M 45.359375 -103.46875 C 49.679688 -103.46875 52.851562 -104.269531 54.875 -105.875 C 56.894531 -107.476562 58.21875 -109.773438 58.84375 -112.765625 C 59.46875 -115.765625 59.78125 -120.050781 59.78125 -125.625 C 59.78125 -133.15625 58.941406 -138.59375 57.265625 -141.9375 C 55.597656 -145.28125 52.253906 -146.953125 47.234375 -146.953125 L 43.265625 -146.953125 L 43.265625 -103.46875 Z M 45.359375 -103.46875 "/></g></g></g><g fill="#ac0000" fill-opacity="1"><g transform="translate(286.278658, 239.692125)"><g><path d="M 50.796875 1.671875 C 36.304688 1.671875 25.296875 -2.75 17.765625 -11.59375 C 10.242188 -20.445312 6.484375 -32.882812 6.484375 -48.90625 L 6.484375 -134.40625 C 6.484375 -149.875 10.242188 -161.546875 17.765625 -169.421875 C 25.296875 -177.296875 36.304688 -181.234375 50.796875 -181.234375 C 65.285156 -181.234375 76.289062 -177.296875 83.8125 -169.421875 C 91.34375 -161.546875 95.109375 -149.875 95.109375 -134.40625 L 95.109375 -48.90625 C 95.109375 -32.75 91.34375 -20.28125 83.8125 -11.5 C 76.289062 -2.71875 65.285156 1.671875 50.796875 1.671875 Z M 50.796875 -31.359375 C 54.003906 -31.359375 56.164062 -32.75 57.28125 -35.53125 C 58.394531 -38.320312 58.953125 -42.222656 58.953125 -47.234375 L 58.953125 -135.03125 C 58.953125 -138.9375 58.425781 -142.109375 57.375 -144.546875 C 56.332031 -146.984375 54.207031 -148.203125 51 -148.203125 C 45.007812 -148.203125 42.015625 -143.671875 42.015625 -134.609375 L 42.015625 -47.03125 C 42.015625 -41.875 42.640625 -37.972656 43.890625 -35.328125 C 45.148438 -32.679688 47.453125 -31.359375 50.796875 -31.359375 Z M 50.796875 -31.359375 "/></g></g></g></g></g></g><g clip-path="url(#4fde53377b)"><g transform="matrix(1, 0, 0, 1, 2, 199)"><g clip-path="url(#7c7609f3c4)"><g fill="#ac0000" fill-opacity="1"><g transform="translate(0.78886, 238.136859)"><g><path d="M 6.265625 0 L 6.265625 -179.5625 L 40.96875 -179.5625 L 40.96875 0 Z M 6.265625 0 "/></g></g></g><g fill="#ac0000" fill-opacity="1"><g transform="translate(48.232813, 238.136859)"><g><path d="M 7.9375 0 L 7.9375 -179.5625 L 44.9375 -179.5625 L 61.453125 -93.640625 L 61.453125 -179.5625 L 96.15625 -179.5625 L 96.15625 0 L 61.03125 0 L 43.0625 -89.890625 L 43.0625 0 Z M 7.9375 0 "/></g></g></g><g fill="#ac0000" fill-opacity="1"><g transform="translate(152.316908, 238.136859)"><g><path d="M 7.9375 -179.5625 L 57.484375 -179.5625 C 70.304688 -179.5625 79.921875 -176.003906 86.328125 -168.890625 C 92.742188 -161.785156 96.019531 -151.265625 96.15625 -137.328125 L 96.578125 -53.296875 C 96.710938 -35.597656 93.644531 -22.289062 87.375 -13.375 C 81.101562 -4.457031 70.722656 0 56.234375 0 L 7.9375 0 Z M 50.375 -31.765625 C 56.925781 -31.765625 60.203125 -34.972656 60.203125 -41.390625 L 60.203125 -133.984375 C 60.203125 -138.023438 59.882812 -141.054688 59.25 -143.078125 C 58.625 -145.097656 57.472656 -146.457031 55.796875 -147.15625 C 54.128906 -147.851562 51.554688 -148.203125 48.078125 -148.203125 L 44.109375 -148.203125 L 44.109375 -31.765625 Z M 50.375 -31.765625 "/></g></g></g><g fill="#ac0000" fill-opacity="1"><g transform="translate(255.355982, 238.136859)"><g><path d="M 6.265625 0 L 6.265625 -179.5625 L 40.96875 -179.5625 L 40.96875 0 Z M 6.265625 0 "/></g></g></g><g fill="#ac0000" fill-opacity="1"><g transform="translate(302.799936, 238.136859)"><g><path d="M 3.140625 0 L 20.484375 -179.5625 L 81.3125 -179.5625 L 98.453125 0 L 64.375 0 L 61.875 -29.0625 L 40.140625 -29.0625 L 38.046875 0 Z M 42.84375 -57.6875 L 59.15625 -57.6875 L 51.21875 -149.046875 L 49.546875 -149.046875 Z M 42.84375 -57.6875 "/></g></g></g></g></g></g></g></g></g></svg>